<?xml version="1.0" standalone="no"?>
<!DOCTYPE svg PUBLIC "-//W3C//DTD SVG 20010904//EN"
 "http://www.w3.org/TR/2001/REC-SVG-20010904/DTD/svg10.dtd">
<svg version="1.0" xmlns="http://www.w3.org/2000/svg"
 width="40.000000pt" height="40.000000pt" viewBox="0 0 40.000000 40.000000"
 preserveAspectRatio="xMidYMid meet">

<g transform="translate(0.000000,40.000000) scale(0.100000,-0.100000)"
fill="#000000" stroke="none">
<path d="M185 280 c-48 -61 -85 -113 -83 -116 3 -2 40 42 83 98 43 57 80 105
82 107 5 7 84 -72 81 -80 -2 -4 -50 -43 -108 -88 l-105 -80 -28 27 c-29 28
-48 25 -71 -11 -8 -13 -4 -23 17 -45 32 -33 35 -62 7 -62 -11 0 -20 -4 -20
-10 0 -5 20 -10 45 -10 25 0 45 5 45 10 0 6 -9 10 -20 10 -11 0 -20 5 -20 10
0 6 6 10 13 10 18 0 47 32 47 52 0 12 140 130 214 180 7 5 -9 27 -40 59 l-51
51 -88 -112z"/>
</g>
</svg>
