<?xml version="1.0" standalone="no"?>
<!DOCTYPE svg PUBLIC "-//W3C//DTD SVG 20010904//EN"
 "http://www.w3.org/TR/2001/REC-SVG-20010904/DTD/svg10.dtd">
<svg version="1.0" xmlns="http://www.w3.org/2000/svg"
 width="100px" height="100px" viewBox="0 0 50 39"
 preserveAspectRatio="xMidYMid meet">

<g transform="translate(0.000000,512.000000) scale(0.100000,-0.100000)"
fill="#000000" stroke="none">
<path d="M1665 5106 c-82 -27 -331 -148 -348 -169 -12 -14 -17 -32 -14 -50 4
-28 0 -31 -60 -59 l-64 -29 -26 21 c-14 11 -36 20 -49 20 -14 0 -93 -33 -177
-73 -121 -59 -160 -83 -194 -119 -53 -59 -79 -109 -92 -184 -20 -106 -14 -123
178 -532 l90 -194 31 -436 c17 -241 33 -452 36 -470 8 -52 35 -72 99 -72 30 0
55 -3 55 -7 0 -46 355 -2313 365 -2333 62 -121 243 -219 540 -294 809 -204
2124 -150 2661 109 105 51 198 129 225 190 22 48 24 113 5 158 -7 18 -241 369
-520 781 -278 411 -506 750 -506 754 0 21 49 47 159 83 117 39 130 45 177 94
58 59 81 124 70 198 -17 109 -86 170 -248 222 -62 19 -122 42 -134 50 -16 10
-34 51 -64 139 -47 142 -68 178 -128 220 -35 25 -55 31 -113 34 -60 4 -77 1
-124 -23 -60 -29 -103 -80 -125 -150 -7 -22 -15 -44 -17 -48 -5 -9 -24 17
-274 387 l-172 256 46 49 c33 35 47 59 47 78 0 29 -55 87 -487 505 l-192 187
-102 218 c-185 398 -192 408 -307 465 -74 36 -180 47 -247 24z m860 -1116
c154 -149 281 -275 283 -280 6 -16 -200 -179 -368 -292 -333 -223 -738 -391
-1125 -467 -176 -35 -195 -36 -196 -15 0 11 -13 188 -28 394 -15 206 -27 376
-26 378 3 3 1168 550 1175 551 3 1 131 -121 285 -269z m505 -860 c129 -193
235 -355 235 -362 0 -8 -56 -33 -128 -58 -71 -25 -143 -57 -161 -72 -48 -39
-76 -105 -76 -180 1 -135 59 -196 247 -259 68 -22 132 -49 141 -60 10 -10 28
-51 41 -91 59 -183 87 -230 163 -269 121 -62 273 -9 328 113 13 29 20 36 28
26 25 -31 730 -1078 725 -1078 -3 0 -48 13 -101 30 -105 32 -317 80 -355 80
-24 0 -63 -34 -68 -60 -5 -26 11 -69 29 -79 10 -5 76 -22 148 -36 150 -31 333
-89 421 -134 76 -38 143 -99 143 -131 0 -55 -133 -138 -320 -199 -756 -248
-2268 -194 -2750 98 -78 47 -106 90 -85 130 38 73 243 165 505 225 418 96 995
128 1554 85 l156 -12 26 24 c33 31 30 84 -6 110 -44 32 -219 44 -660 44 -436
0 -587 -11 -894 -61 -303 -50 -573 -134 -689 -216 -16 -11 -30 -18 -32 -16 -4
3 -315 2034 -315 2055 0 6 26 17 58 23 480 97 945 304 1330 592 64 48 119 88
122 87 3 0 111 -157 240 -349z m627 -135 c14 -10 34 -53 59 -127 67 -205 88
-228 259 -284 60 -20 122 -43 136 -50 49 -25 60 -93 22 -136 -9 -9 -70 -35
-138 -58 -187 -62 -213 -88 -275 -275 -23 -68 -49 -129 -58 -138 -43 -38 -111
-27 -136 22 -7 14 -30 76 -50 136 -56 171 -79 192 -284 259 -122 41 -142 57
-142 115 0 54 30 77 144 112 121 37 151 51 194 93 44 40 57 67 97 193 18 58
43 116 56 129 26 28 82 33 116 9z"/>
<path d="M4397 3826 c-66 -24 -95 -62 -131 -172 -16 -50 -17 -50 -86 -73 -79
-25 -126 -60 -146 -108 -29 -68 -8 -154 47 -195 14 -10 58 -31 98 -46 l73 -27
28 -78 c15 -42 35 -86 45 -96 44 -49 137 -65 201 -35 44 21 70 58 98 141 l23
68 69 26 c93 34 119 53 144 103 25 52 25 89 1 141 -25 56 -49 74 -137 105
l-77 27 -27 77 c-15 42 -36 86 -46 97 -43 48 -118 66 -177 45z m73 -167 c0 -4
9 -34 21 -64 32 -87 67 -119 159 -150 44 -15 80 -31 80 -36 0 -10 -19 -19
-113 -53 -67 -25 -101 -64 -129 -148 -33 -97 -48 -98 -77 -6 -32 97 -71 137
-168 169 -40 12 -73 28 -73 35 0 7 24 20 53 30 124 40 153 67 188 172 12 37
24 71 26 75 5 9 33 -11 33 -24z"/>
<path d="M595 2431 c-57 -26 -89 -68 -120 -160 -14 -44 -32 -84 -38 -89 -7 -5
-48 -21 -93 -36 -116 -38 -164 -93 -164 -187 0 -93 50 -147 176 -193 l89 -31
31 -89 c46 -127 100 -176 194 -176 95 0 151 53 193 184 l28 84 86 28 c98 32
138 61 164 119 25 54 24 102 -3 155 -28 55 -66 81 -168 115 l-79 26 -26 79
c-34 102 -60 140 -115 168 -53 27 -101 28 -155 3z m131 -231 c41 -119 70 -147
193 -188 76 -25 86 -31 86 -53 0 -21 -10 -27 -90 -55 -120 -41 -150 -70 -191
-189 -28 -79 -34 -90 -55 -90 -21 0 -28 11 -54 85 -48 134 -61 147 -195 195
-76 27 -85 33 -85 55 0 22 9 28 86 55 48 17 98 38 113 48 29 20 55 66 81 147
25 79 34 92 57 88 16 -2 28 -23 54 -98z"/>
</g>
</svg>
