<?xml version="1.0" encoding="UTF-8"?>
<svg xmlns="http://www.w3.org/2000/svg" data-name="Layer 1" viewBox="0 0 100 100" width="75px" height="75px" x="25px" y="25px">
<title>Artboard 25</title>
<path d="M92.76,52.86H65.92l0,.57a76.37,76.37,0,0,1-.71,7.75l-.1.68H92.76A2.25,2.25,0,0,0,95,59.61v-4.5A2.25,2.25,0,0,0,92.76,52.86Zm1.06,6.75a1.07,1.07,0,0,1-1.06,1.06H66.47c.28-2.14.48-4.36.59-6.62h25.7a1.07,1.07,0,0,1,1.06,1.06ZM92.76,38.14H65.09l.1.68a76.37,76.37,0,0,1,.71,7.75l0,.57H92.76A2.25,2.25,0,0,0,95,44.89v-4.5A2.25,2.25,0,0,0,92.76,38.14Zm1.06,6.75A1.07,1.07,0,0,1,92.76,46H67.06c-.11-2.26-.31-4.48-.59-6.62H92.76a1.07,1.07,0,0,1,1.06,1.06ZM62.19,27A42.27,42.27,0,0,1,63.81,32l.12.44H88.55a2.26,2.26,0,0,0,2.26-2.25v-4.5a2.26,2.26,0,0,0-2.26-2.25h-28l.45.87C61.39,25.15,61.81,26.07,62.19,27Zm26.36-2.42a1.07,1.07,0,0,1,1.07,1.06v4.5a1.07,1.07,0,0,1-1.07,1.06H64.85a45.84,45.84,0,0,0-1.55-4.64c-.27-.68-.56-1.34-.86-2Zm0,43H63.93l-.12.44a42.27,42.27,0,0,1-1.62,5c-.38,1-.8,1.88-1.24,2.74l-.45.87H88.55a2.26,2.26,0,0,0,2.26-2.25v-4.5A2.26,2.26,0,0,0,88.55,67.58Zm1.07,6.75a1.07,1.07,0,0,1-1.07,1.06H62.44c.3-.64.59-1.3.86-2a45.84,45.84,0,0,0,1.55-4.64h23.7a1.07,1.07,0,0,1,1.07,1.06Zm-25.68-13a75.54,75.54,0,0,0,.75-7.87c.1-2.31.1-4.65,0-7a75.54,75.54,0,0,0-.75-7.87,58.51,58.51,0,0,0-1.46-7,34.8,34.8,0,0,0-3.21-7.94C56.7,19.3,53.36,17,49.59,17,29.51,17,5,32.21,5,50s24.52,33,44.6,33c3.77,0,7.11-2.33,9.68-6.75a34.8,34.8,0,0,0,3.21-7.94A58.51,58.51,0,0,0,63.94,61.35ZM58.23,75.68c-2.37,4.09-5.28,6.16-8.64,6.16C30.05,81.84,6.18,67.15,6.18,50S30.05,18.16,49.59,18.16c3.36,0,6.27,2.07,8.64,6.16A32.9,32.9,0,0,1,61.33,32a55.45,55.45,0,0,1,1.43,6.83,73.54,73.54,0,0,1,.73,7.75c.1,2.28.1,4.58,0,6.86a73.79,73.79,0,0,1-.73,7.75A55.45,55.45,0,0,1,61.33,68,32.9,32.9,0,0,1,58.23,75.68Z"/>
 <text x="50" y="180" fill="#000000" font-size="50px" font-weight="bold" font-family="'Helvetica Neue', Helvetica, Arial-Unicode, Arial, Sans-serif">FS</text>
  <text x="20" y="220" fill="#000000" font-size="25px" font-weight="bold" font-family="'Helvetica Neue', Helvetica, Arial-Unicode, Arial, Sans-serif">CLOTHING</text>
</svg>